<svg width="640" height="640" viewBox="0 0 640 640" fill="none" xmlns="http://www.w3.org/2000/svg">
  <rect width="640" height="640" rx="40" fill="#FFFDF7"/>
  <rect x="24" y="24" width="592" height="592" rx="28" stroke="#1F2218" stroke-opacity="0.12" stroke-width="8"/>
  <rect x="72" y="72" width="496" height="496" rx="28" fill="#F4EFE5"/>
  <rect x="112" y="112" width="120" height="120" rx="16" fill="#0F766E"/>
  <rect x="136" y="136" width="72" height="72" rx="10" fill="#FFFDF7"/>
  <rect x="408" y="112" width="120" height="120" rx="16" fill="#0F766E"/>
  <rect x="432" y="136" width="72" height="72" rx="10" fill="#FFFDF7"/>
  <rect x="112" y="408" width="120" height="120" rx="16" fill="#0F766E"/>
  <rect x="136" y="432" width="72" height="72" rx="10" fill="#FFFDF7"/>
  <rect x="272" y="136" width="24" height="24" fill="#1F2218"/>
  <rect x="320" y="136" width="24" height="24" fill="#1F2218"/>
  <rect x="344" y="160" width="24" height="24" fill="#1F2218"/>
  <rect x="272" y="184" width="24" height="24" fill="#1F2218"/>
  <rect x="296" y="208" width="24" height="24" fill="#1F2218"/>
  <rect x="320" y="232" width="24" height="24" fill="#1F2218"/>
  <rect x="344" y="208" width="24" height="24" fill="#1F2218"/>
  <rect x="248" y="256" width="24" height="24" fill="#1F2218"/>
  <rect x="296" y="256" width="24" height="24" fill="#1F2218"/>
  <rect x="344" y="256" width="24" height="24" fill="#1F2218"/>
  <rect x="392" y="256" width="24" height="24" fill="#1F2218"/>
  <rect x="272" y="304" width="24" height="24" fill="#1F2218"/>
  <rect x="320" y="304" width="24" height="24" fill="#1F2218"/>
  <rect x="368" y="304" width="24" height="24" fill="#1F2218"/>
  <rect x="248" y="352" width="24" height="24" fill="#1F2218"/>
  <rect x="296" y="352" width="24" height="24" fill="#1F2218"/>
  <rect x="344" y="352" width="24" height="24" fill="#1F2218"/>
  <rect x="392" y="352" width="24" height="24" fill="#1F2218"/>
  <rect x="272" y="400" width="24" height="24" fill="#1F2218"/>
  <rect x="320" y="400" width="24" height="24" fill="#1F2218"/>
  <rect x="368" y="424" width="24" height="24" fill="#1F2218"/>
  <rect x="416" y="400" width="24" height="24" fill="#1F2218"/>
  <rect x="248" y="448" width="24" height="24" fill="#1F2218"/>
  <rect x="296" y="472" width="24" height="24" fill="#1F2218"/>
  <rect x="344" y="472" width="24" height="24" fill="#1F2218"/>
  <rect x="392" y="472" width="24" height="24" fill="#1F2218"/>
  <text x="320" y="590" text-anchor="middle" fill="#1F2218" font-size="28" font-family="Arial, sans-serif">Tempel QRIS merchant di sini</text>
</svg>
